<svg width="1544" height="397" viewBox="0 0 1544 397" fill="none" xmlns="http://www.w3.org/2000/svg">
<path d="M207.455 93.8691H303.778V190.192H207.455V93.8691Z" fill="#7F9574" fill-opacity="0.7"/>
<path d="M207.455 205.011H303.778V301.334H207.455V205.011Z" fill="#7F9574"/>
<path d="M96.313 205.011H192.636V301.334H96.313V205.011Z" fill="#7F9574" fill-opacity="0.7"/>
<path d="M96.313 93.8691H192.636V190.192H96.313V93.8691Z" fill="#7F9574" fill-opacity="0.3"/>
<path d="M433.602 262.795H515.462V301.334H390.843V101.886H433.602V262.795Z" fill="black"/>
<path d="M676.933 161.805V301.334H643.458L639.519 286.425C634.081 293.739 627.517 298.615 619.828 301.053C612.326 303.491 604.45 304.71 596.198 304.71C586.258 304.71 577.069 302.834 568.63 299.084C560.378 295.145 553.158 289.894 546.969 283.33C540.78 276.579 535.904 268.796 532.341 259.982C528.965 250.98 527.277 241.415 527.277 231.288C527.277 221.161 528.965 211.69 532.341 202.876C535.904 193.874 540.78 186.091 546.969 179.527C553.158 172.776 560.378 167.525 568.63 163.774C577.069 159.836 586.258 157.867 596.198 157.867C605.2 157.867 613.451 159.273 620.953 162.086C628.455 164.899 634.643 169.4 639.519 175.589L643.458 161.805H676.933ZM638.113 231.851C638.113 224.537 637.081 218.442 635.018 213.566C633.143 208.502 630.517 204.47 627.142 201.47C623.954 198.281 620.109 196.031 615.608 194.718C611.295 193.218 606.606 192.468 601.543 192.468C596.479 192.468 591.697 193.499 587.196 195.562C582.883 197.625 579.038 200.438 575.662 204.001C572.287 207.377 569.661 211.503 567.786 216.379C565.91 221.067 564.973 226.037 564.973 231.288C564.973 236.727 565.91 241.79 567.786 246.479C569.661 251.167 572.287 255.293 575.662 258.856C579.038 262.232 582.883 264.951 587.196 267.014C591.697 269.077 596.479 270.109 601.543 270.109C611.67 270.109 620.203 267.014 627.142 260.826C634.268 254.449 637.925 244.791 638.113 231.851Z" fill="black"/>
<path d="M782.817 157.867C792.569 157.867 801.665 159.836 810.104 163.774C818.543 167.525 825.857 172.776 832.046 179.527C838.235 186.091 843.017 193.874 846.393 202.876C849.956 211.69 851.738 221.161 851.738 231.288C851.738 241.415 849.956 250.98 846.393 259.982C843.017 268.796 838.235 276.579 832.046 283.33C825.857 289.894 818.543 295.145 810.104 299.084C801.665 302.834 792.569 304.71 782.817 304.71C774.566 304.71 766.595 303.303 758.906 300.49C751.405 297.489 745.497 293.739 741.184 289.238L735.558 301.334H702.363V95.9789H741.184V173.057C751.873 162.93 765.751 157.867 782.817 157.867ZM777.473 270.109C782.536 270.109 787.225 269.077 791.538 267.014C796.039 264.951 799.977 262.232 803.353 258.856C806.729 255.293 809.354 251.167 811.229 246.479C813.105 241.79 814.043 236.727 814.043 231.288C814.043 226.037 813.105 221.067 811.229 216.379C809.354 211.503 806.729 207.377 803.353 204.001C799.977 200.438 796.039 197.625 791.538 195.562C787.225 193.499 782.536 192.468 777.473 192.468C772.409 192.468 767.627 193.218 763.126 194.718C758.812 196.031 754.968 198.281 751.592 201.47C748.404 204.47 745.872 208.502 743.997 213.566C742.121 218.442 741.184 224.537 741.184 231.851C741.184 238.415 742.121 244.135 743.997 249.011C745.872 253.699 748.404 257.637 751.592 260.826C754.968 263.826 758.812 266.17 763.126 267.858C767.627 269.359 772.409 270.109 777.473 270.109Z" fill="black"/>
<path d="M879.256 149.99C879.256 140.238 880.662 131.893 883.475 124.954C886.476 117.827 890.414 112.013 895.29 107.513C900.166 102.824 905.792 99.4484 912.169 97.3855C918.545 95.135 925.296 94.0098 932.423 94.0098C936.736 94.0098 941.05 94.3848 945.363 95.135C949.676 95.8851 953.99 97.0104 958.303 98.5107L955.209 126.923L945.926 125.516C944.425 125.329 943.019 125.235 941.706 125.235C940.581 125.047 939.456 124.954 938.33 124.954C931.204 124.954 925.953 126.735 922.577 130.299C919.389 133.674 917.795 138.644 917.795 145.208V161.805H955.209V196.406H917.795V301.334H879.256V196.406H860.971V175.87L879.256 161.805V149.99Z" fill="black"/>
<path d="M989.186 95.6976H1028.01V301.334H989.186V95.6976Z" fill="black"/>
<path d="M1120.43 157.867C1130.37 157.867 1139.75 159.836 1148.56 163.774C1157.38 167.525 1165.07 172.776 1171.63 179.527C1178.2 186.091 1183.35 193.874 1187.1 202.876C1191.04 211.69 1193.01 221.161 1193.01 231.288C1193.01 241.415 1191.04 250.98 1187.1 259.982C1183.35 268.796 1178.2 276.579 1171.63 283.33C1165.07 289.894 1157.38 295.145 1148.56 299.084C1139.75 302.834 1130.37 304.71 1120.43 304.71C1110.31 304.71 1100.84 302.834 1092.02 299.084C1083.21 295.145 1075.52 289.894 1068.95 283.33C1062.39 276.579 1057.14 268.796 1053.2 259.982C1049.45 250.98 1047.57 241.415 1047.57 231.288C1047.57 221.161 1049.45 211.69 1053.2 202.876C1057.14 193.874 1062.39 186.091 1068.95 179.527C1075.52 172.776 1083.21 167.525 1092.02 163.774C1100.84 159.836 1110.31 157.867 1120.43 157.867ZM1120.43 270.671C1125.12 270.671 1129.44 269.734 1133.37 267.858C1137.5 265.983 1141.06 263.451 1144.06 260.263C1147.25 256.887 1149.69 252.949 1151.38 248.448C1153.25 243.76 1154.19 238.602 1154.19 232.976C1154.19 227.35 1153.25 222.099 1151.38 217.223C1149.69 212.347 1147.25 208.127 1144.06 204.564C1141.06 200.813 1137.5 197.906 1133.37 195.843C1129.44 193.593 1125.12 192.468 1120.43 192.468C1115.74 192.468 1111.34 193.593 1107.21 195.843C1103.09 197.906 1099.43 200.813 1096.24 204.564C1093.24 208.127 1090.8 212.347 1088.93 217.223C1087.24 222.099 1086.4 227.35 1086.4 232.976C1086.4 238.602 1087.24 243.76 1088.93 248.448C1090.8 252.949 1093.24 256.887 1096.24 260.263C1099.43 263.451 1103.09 265.983 1107.21 267.858C1111.34 269.734 1115.74 270.671 1120.43 270.671Z" fill="black"/>
<path d="M1396.74 161.805H1436.69L1394.77 301.334H1345.54L1325.29 234.101L1323.32 214.128L1321.07 234.101L1300.81 301.334H1251.87L1209.95 161.805H1249.9L1278.87 262.795L1307 161.805H1339.35L1367.48 263.357L1396.74 161.805Z" fill="black"/>
</svg>
