<svg id="Capa_1" data-name="Capa 1" xmlns="http://www.w3.org/2000/svg" xmlns:xlink="http://www.w3.org/1999/xlink" viewBox="0 0 512 512"><defs><style>.cls-1{fill:none;}.cls-2{clip-path:url(#clip-path);}.cls-3{fill:#d5edf0;}.cls-4{fill:#a0c0e5;}.cls-5{fill:#1f3149;}</style><clipPath id="clip-path"><circle class="cls-1" cx="271.07" cy="239.18" r="151.42" transform="translate(-89.73 261.73) rotate(-45)"/></clipPath></defs><title>Plan de travail 1</title><g class="cls-2"><path class="cls-3" d="M237.88,386.82,204.06,353a5.21,5.21,0,0,0-7.16,0l-33.82,33.82a5.06,5.06,0,0,0,0,7.16L196.9,427.8a5.06,5.06,0,0,0,7.16,0L237.88,394A5.06,5.06,0,0,0,237.88,386.82Z"/><path class="cls-3" d="M136.41,285.35l-33.82-33.82a5.21,5.21,0,0,0-7.16,0L61.6,285.35a5.06,5.06,0,0,0,0,7.16l33.82,33.82a5.06,5.06,0,0,0,7.16,0l33.82-33.82A5.06,5.06,0,0,0,136.41,285.35Z"/><path class="cls-3" d="M170.23,319.17l-33.82-33.82a5.21,5.21,0,0,0-7.16,0L95.43,319.17a5.06,5.06,0,0,0,0,7.16l33.82,33.82a5.06,5.06,0,0,0,7.16,0l33.82-33.82a5.06,5.06,0,0,0,0-7.16Z"/><path class="cls-3" d="M204.06,353l-33.82-33.82a5.06,5.06,0,0,0-7.16,0L129.25,353a5.06,5.06,0,0,0,0,7.16L163.08,394a5.06,5.06,0,0,0,7.16,0l33.82-33.82A5.06,5.06,0,0,0,204.06,353Z"/><path class="cls-3" d="M271.71,353l-33.83-33.82a5.06,5.06,0,0,0-7.16,0L196.9,353a5.06,5.06,0,0,0,0,7.16L230.72,394a5.06,5.06,0,0,0,7.16,0l33.83-33.82a5.06,5.06,0,0,0,0-7.16Z"/><path class="cls-3" d="M373.18,183.88l-33.83-33.82a5.06,5.06,0,0,0-7.16,0l-33.82,33.82a5.07,5.07,0,0,0,0,7.16l33.82,33.82a5.06,5.06,0,0,0,7.16,0L373.18,191a5.06,5.06,0,0,0,0-7.16Z"/><path class="cls-3" d="M339.35,150.05l-33.82-33.82a5.21,5.21,0,0,0-7.16,0l-33.82,33.82a5.07,5.07,0,0,0,0,7.16L298.37,191a5.06,5.06,0,0,0,7.16,0l33.82-33.82A5.07,5.07,0,0,0,339.35,150.05Z"/><path class="cls-3" d="M271.71,150.05l-33.83-33.82a5.06,5.06,0,0,0-7.16,0L196.9,150.05a5.06,5.06,0,0,0,0,7.16L230.72,191a5.06,5.06,0,0,0,7.16,0l33.83-33.82a5.06,5.06,0,0,0,0-7.16Z"/><path class="cls-3" d="M237.88,116.23,204.06,82.41a5.06,5.06,0,0,0-7.16,0l-33.82,33.82a5.06,5.06,0,0,0,0,7.16l33.82,33.82a5.06,5.06,0,0,0,7.16,0l33.82-33.82a5.06,5.06,0,0,0,0-7.16Z"/><path class="cls-3" d="M204.06,150.05l-33.82-33.82a5.06,5.06,0,0,0-7.16,0l-33.82,33.82a5.06,5.06,0,0,0,0,7.16L163.08,191a5.06,5.06,0,0,0,7.16,0l33.82-33.82A5.06,5.06,0,0,0,204.06,150.05Z"/><path class="cls-3" d="M170.23,183.88l-33.82-33.82a5.06,5.06,0,0,0-7.16,0L95.43,183.88a5.06,5.06,0,0,0,0,7.16l33.82,33.82a5.06,5.06,0,0,0,7.16,0L170.23,191a5.06,5.06,0,0,0,0-7.16Z"/><path class="cls-3" d="M136.41,217.7l-33.82-33.82a5.21,5.21,0,0,0-7.16,0L61.6,217.7a5.06,5.06,0,0,0,0,7.16l33.82,33.82a5.06,5.06,0,0,0,7.16,0l33.82-33.82A5.06,5.06,0,0,0,136.41,217.7Z"/><path class="cls-3" d="M373.17,251.52,339.35,217.7a5.21,5.21,0,0,0-7.16,0l-33.82,33.82a5.07,5.07,0,0,0,0,7.16l33.82,33.82a5.06,5.06,0,0,0,7.16,0l33.82-33.82A5.07,5.07,0,0,0,373.17,251.52Z"/><path class="cls-3" d="M373.17,319.17l-33.82-33.82a5.21,5.21,0,0,0-7.16,0l-33.82,33.82a5.07,5.07,0,0,0,0,7.16l33.82,33.82a5.06,5.06,0,0,0,7.16,0l33.82-33.82A5.07,5.07,0,0,0,373.17,319.17Z"/><path class="cls-3" d="M339.35,353l-33.82-33.82a5.06,5.06,0,0,0-7.16,0L264.54,353a5.07,5.07,0,0,0,0,7.16L298.37,394a5.06,5.06,0,0,0,7.16,0l33.82-33.82A5.07,5.07,0,0,0,339.35,353Z"/><path class="cls-3" d="M305.53,386.82,271.71,353a5.21,5.21,0,0,0-7.16,0l-33.82,33.82a5.06,5.06,0,0,0,0,7.16l33.82,33.82a5.06,5.06,0,0,0,7.16,0L305.53,394A5.07,5.07,0,0,0,305.53,386.82Z"/><path class="cls-4" d="M305.53,183.88l-33.82-33.82a5.06,5.06,0,0,0-7.16,0l-33.82,33.82a5.06,5.06,0,0,0,0,7.16l33.82,33.82a5.06,5.06,0,0,0,7.16,0L305.53,191A5.07,5.07,0,0,0,305.53,183.88Z"/><path class="cls-4" d="M237.88,183.88l-33.82-33.82a5.06,5.06,0,0,0-7.16,0l-33.82,33.82a5.06,5.06,0,0,0,0,7.16l33.82,33.82a5.06,5.06,0,0,0,7.16,0L237.88,191a5.06,5.06,0,0,0,0-7.16Z"/><path class="cls-4" d="M204.06,217.7l-33.82-33.82a5.21,5.21,0,0,0-7.16,0L129.25,217.7a5.06,5.06,0,0,0,0,7.16l33.82,33.82a5.06,5.06,0,0,0,7.16,0l33.82-33.82A5.06,5.06,0,0,0,204.06,217.7Z"/><path class="cls-4" d="M204.06,285.35l-33.82-33.82a5.21,5.21,0,0,0-7.16,0l-33.82,33.82a5.06,5.06,0,0,0,0,7.16l33.82,33.82a5.06,5.06,0,0,0,7.16,0l33.82-33.82A5.06,5.06,0,0,0,204.06,285.35Z"/><path class="cls-4" d="M237.88,319.17l-33.82-33.82a5.21,5.21,0,0,0-7.16,0l-33.82,33.82a5.06,5.06,0,0,0,0,7.16l33.82,33.82a5.06,5.06,0,0,0,7.16,0l33.82-33.82a5.06,5.06,0,0,0,0-7.16Z"/><path class="cls-4" d="M305.53,319.17l-33.82-33.82a5.21,5.21,0,0,0-7.16,0l-33.82,33.82a5.06,5.06,0,0,0,0,7.16l33.82,33.82a5.06,5.06,0,0,0,7.16,0l33.82-33.82A5.07,5.07,0,0,0,305.53,319.17Z"/><path class="cls-4" d="M339.35,285.35l-33.82-33.82a5.06,5.06,0,0,0-7.16,0l-33.82,33.82a5.07,5.07,0,0,0,0,7.16l33.82,33.82a5.06,5.06,0,0,0,7.16,0l33.82-33.82A5.07,5.07,0,0,0,339.35,285.35Z"/><path class="cls-4" d="M305.53,251.52,271.71,217.7a5.06,5.06,0,0,0-7.16,0l-33.82,33.82a5.06,5.06,0,0,0,0,7.16l33.82,33.82a5.06,5.06,0,0,0,7.16,0l33.82-33.82A5.07,5.07,0,0,0,305.53,251.52Z"/><path class="cls-4" d="M339.35,217.7l-33.82-33.82a5.21,5.21,0,0,0-7.16,0L264.54,217.7a5.07,5.07,0,0,0,0,7.16l33.82,33.82a5.06,5.06,0,0,0,7.16,0l33.82-33.82A5.07,5.07,0,0,0,339.35,217.7Z"/><path class="cls-5" d="M234.3,260.17a5,5,0,0,1-3.58-1.48L196.9,224.86a5.06,5.06,0,0,1,0-7.16l33.82-33.82a5.06,5.06,0,0,1,7.16,0l33.83,33.82a5.07,5.07,0,0,1,0,7.16l-33.83,33.82A5,5,0,0,1,234.3,260.17Z"/><path class="cls-5" d="M271.71,285.35l-33.83-33.82a5.06,5.06,0,0,0-7.16,0L196.9,285.35a5.06,5.06,0,0,0,0,7.16l33.82,33.82a5.06,5.06,0,0,0,7.16,0l33.83-33.82a5.06,5.06,0,0,0,0-7.16Z"/><path class="cls-4" d="M170.23,251.52,136.41,217.7a5.06,5.06,0,0,0-7.16,0L95.43,251.52a5.06,5.06,0,0,0,0,7.16l33.82,33.82a5.06,5.06,0,0,0,7.16,0l33.82-33.82a5.06,5.06,0,0,0,0-7.16Z"/><path class="cls-5" d="M237.88,251.52,204.06,217.7a5.06,5.06,0,0,0-7.16,0l-33.82,33.82a5.06,5.06,0,0,0,0,7.16l33.82,33.82a5.06,5.06,0,0,0,7.16,0l33.82-33.82a5.06,5.06,0,0,0,0-7.16Z"/></g><path class="cls-5" d="M408.54,101.71a194.41,194.41,0,0,0-274.94,0c-67.78,67.78-75,173.12-21.76,249L54.7,407.82a33.75,33.75,0,0,0,47.73,47.73l57.15-57.15a194.34,194.34,0,0,0,249-21.76C484.46,300.73,484.46,177.63,408.54,101.71Zm-47.73,227.2a126.91,126.91,0,1,1-89.73-216.64h0a126.91,126.91,0,0,1,89.72,216.64Z"/></svg>